<?xml version="1.0" standalone="no"?>
<!DOCTYPE svg PUBLIC "-//W3C//DTD SVG 20010904//EN"
 "http://www.w3.org/TR/2001/REC-SVG-20010904/DTD/svg10.dtd">
<svg version="1.0" xmlns="http://www.w3.org/2000/svg"
 width="360.000000pt" height="360.000000pt" viewBox="0 0 360.000000 360.000000"
 preserveAspectRatio="xMidYMid meet">
<metadata>
Created by potrace 1.11, written by Peter Selinger 2001-2013
</metadata>
<g transform="translate(0.000000,360.000000) scale(0.100000,-0.100000)"
fill="#000000" stroke="none">
<path d="M2550 3560 c-76 -21 -109 -54 -175 -176 l-39 -71 -74 23 c-41 13 -91
26 -111 29 -20 4 -58 10 -86 15 -52 9 -248 6 -300 -4 -115 -24 -252 -80 -325
-135 -208 -154 -349 -419 -350 -661 -1 -124 23 -221 90 -355 80 -162 185 -293
484 -605 353 -368 410 -486 308 -642 -70 -108 -219 -140 -388 -83 -141 47
-346 165 -404 231 -23 27 -56 88 -58 107 0 5 -9 15 -19 24 -10 8 -13 12 -6 9
12 -7 12 11 0 32 -5 6 -6 16 -2 21 3 5 1 12 -5 16 -5 3 -10 1 -10 -6 0 -7 -3
-9 -7 -5 -5 4 0 14 10 21 10 7 14 16 8 19 -5 4 -12 2 -16 -4 -3 -5 -12 -10
-18 -10 -7 0 2 9 18 20 17 11 23 20 15 20 -13 0 -13 2 -1 9 8 5 12 18 8 30 -3
12 -2 21 2 21 12 0 10 33 -3 49 -8 11 -8 13 2 7 9 -5 12 4 12 34 0 29 -3 39
-12 34 -8 -5 -9 -2 -5 10 4 10 -1 31 -10 49 -20 34 -43 63 -43 51 0 -3 -18 16
-40 43 -38 48 -102 93 -228 158 -110 57 -193 51 -266 -20 -74 -72 -124 -244
-120 -415 5 -268 124 -498 383 -744 l63 -59 -27 -46 c-87 -152 -100 -222 -53
-302 27 -46 106 -116 123 -111 5 2 7 1 3 -3 -8 -8 4 -22 49 -53 19 -14 34 -18
38 -12 3 5 12 10 18 9 9 0 9 -2 0 -6 -24 -9 -13 -22 49 -52 38 -19 69 -29 81
-25 11 3 23 1 27 -6 5 -9 14 -5 29 12 15 15 20 17 16 6 -5 -13 -2 -17 14 -15
12 1 21 4 21 7 0 3 7 15 16 26 14 18 14 18 3 -5 l-11 -24 31 22 c35 25 74 73
100 123 14 27 44 77 58 97 1 2 10 -2 20 -10 11 -9 14 -10 9 -1 -4 6 -3 12 2
12 6 0 13 -7 16 -16 4 -9 13 -14 21 -10 8 3 15 1 15 -4 0 -6 4 -10 10 -10 5 0
7 8 4 18 -3 9 0 7 8 -6 11 -18 16 -20 27 -10 11 11 13 11 7 0 -4 -7 -4 -12 1
-11 8 2 23 -3 71 -22 14 -5 22 -5 22 1 0 6 12 2 27 -7 15 -10 24 -13 20 -6 -4
6 -3 14 3 18 5 3 10 -1 10 -9 0 -10 8 -14 28 -12 15 2 32 1 37 -2 18 -11 40
-7 47 8 6 13 7 13 7 -1 1 -13 12 -16 56 -16 39 1 55 5 55 15 0 7 -4 11 -9 7
-15 -9 -23 13 -11 32 9 15 10 14 4 -6 -4 -17 -3 -21 6 -16 7 4 13 -1 17 -14 5
-21 14 -26 26 -14 4 3 29 8 55 10 26 1 54 6 62 9 17 8 27 10 53 12 14 2 17 7
12 25 -5 19 -4 20 5 5 13 -21 31 -23 48 -6 6 6 21 13 32 15 59 9 290 185 290
221 0 6 8 16 18 21 9 6 14 11 9 11 -4 0 6 14 22 31 17 17 28 38 26 49 -3 13 1
17 11 13 8 -3 14 1 14 8 0 8 14 41 31 74 27 55 28 60 12 67 -15 5 -14 7 5 7
13 1 21 5 18 10 -4 5 -1 11 5 13 6 2 12 18 12 36 1 18 5 32 10 32 4 0 6 4 2
10 -3 5 -13 7 -23 4 -14 -5 -14 -4 -2 4 8 6 18 8 22 6 4 -3 8 7 9 23 0 15 2
36 4 46 2 9 -2 17 -8 17 -7 0 -6 4 2 9 20 13 23 42 4 39 -9 -2 -18 4 -20 12
-4 13 -3 13 6 0 12 -18 12 -18 16 37 2 24 -1 43 -6 43 -4 0 -6 7 -3 15 4 8 3
23 -2 33 -10 23 -11 29 -13 53 0 12 -5 17 -12 13 -8 -4 -9 0 -4 15 5 15 -1 28
-22 48 -15 14 -22 23 -14 18 10 -6 11 -2 6 16 -4 13 -12 26 -16 27 -5 2 -6 9
-3 14 5 7 2 8 -5 4 -8 -5 -11 -3 -10 5 4 19 -23 59 -38 59 -7 0 -13 5 -13 11
0 5 5 7 11 3 7 -4 -8 21 -32 56 -24 34 -50 64 -56 67 -7 3 -13 10 -13 17 0 6
-8 19 -17 28 -10 9 -31 33 -48 54 -35 45 -93 108 -226 248 -155 163 -178 188
-226 249 -25 31 -50 57 -54 57 -5 0 -9 6 -9 13 0 6 -10 23 -21 37 -11 14 -17
19 -13 11 4 -9 3 -12 -4 -7 -6 4 -8 14 -5 23 5 12 2 15 -8 11 -11 -4 -15 0
-15 16 1 15 -4 20 -19 18 -15 -2 -17 -1 -6 7 19 13 6 45 -15 37 -14 -5 -14 -4
-5 7 14 17 9 59 -8 65 -6 2 -10 -2 -9 -8 2 -7 -4 -15 -12 -17 -12 -4 -12 -3
-2 5 8 5 13 13 12 18 -1 4 4 11 12 14 16 6 22 30 8 30 -6 0 -10 8 -10 18 0 13
2 14 9 4 6 -10 10 -6 15 15 4 15 19 45 32 66 27 40 26 49 -5 54 -12 2 -17 -4
-17 -19 1 -20 -27 -34 -45 -22 -11 6 0 34 13 34 6 0 6 -6 -2 -14 -9 -12 -8
-15 10 -13 15 1 20 7 18 22 -3 22 27 29 50 12 9 -7 19 -4 33 11 11 12 31 25
44 28 14 3 25 10 25 16 0 5 -6 6 -12 2 -8 -4 -8 -2 1 7 10 11 15 11 18 2 8
-23 25 -14 18 10 -5 19 -4 20 5 5 12 -19 40 -25 40 -8 0 5 -5 9 -12 7 -6 -1
-14 6 -16 17 -5 23 13 43 23 25 5 -8 4 -10 -3 -5 -8 5 -12 -1 -12 -14 0 -12 5
-18 10 -15 6 3 14 -4 18 -15 8 -21 9 -21 25 -5 14 14 17 14 17 2 0 -9 8 -14
18 -13 9 2 29 0 45 -5 20 -6 27 -4 27 7 0 8 4 14 9 14 5 0 7 -8 4 -19 -4 -15
2 -20 29 -25 18 -3 55 -17 82 -31 34 -17 52 -22 56 -14 5 6 9 2 13 -10 3 -13
13 -21 27 -21 11 0 19 -4 15 -9 -3 -5 4 -13 15 -16 54 -17 135 -132 155 -219
13 -58 12 -77 -8 -161 -16 -70 -13 -115 13 -166 21 -41 96 -116 112 -111 6 2
8 -4 5 -13 -4 -8 -2 -15 3 -15 5 0 15 -6 22 -12 7 -7 22 -20 32 -28 18 -14 18
-13 13 10 -6 23 -5 23 5 -2 7 -15 32 -38 59 -53 45 -24 48 -24 59 -8 10 16 10
16 8 -3 -2 -11 0 -20 3 -20 3 1 13 -7 23 -17 22 -21 32 -22 40 -1 5 12 1 14
-17 9 -19 -5 -20 -4 -4 5 23 15 36 5 29 -22 -4 -17 -2 -20 15 -16 11 3 27 1
36 -3 10 -6 18 -5 22 1 4 6 11 8 16 5 5 -4 9 -2 9 4 0 5 -6 12 -12 14 -10 4
-10 6 0 6 7 1 15 -5 18 -13 7 -17 25 -12 71 19 18 12 30 25 26 28 -3 4 -2 7 4
7 6 0 18 12 28 26 14 21 14 28 3 42 -11 13 -11 15 4 9 13 -5 20 4 33 43 9 27
17 59 17 72 1 13 4 28 8 33 3 6 6 19 6 30 -1 11 4 24 9 28 6 4 -1 7 -15 5 -17
-2 -26 2 -28 15 -2 9 1 17 7 17 6 0 8 -7 5 -15 -4 -11 -2 -13 9 -9 8 3 17 17
20 30 3 18 1 22 -6 15 -6 -6 -16 -11 -21 -11 -6 0 -4 5 4 10 13 9 13 11 1 19
-17 11 -25 48 -12 56 5 3 13 0 17 -6 5 -8 3 -9 -5 -5 -15 10 -11 -25 4 -36 19
-14 28 -8 14 9 -12 14 -12 16 0 8 11 -6 13 -4 6 11 -4 10 -7 29 -6 42 0 12 -5
22 -12 22 -8 0 -7 4 3 10 13 9 13 10 0 10 -13 0 -13 1 0 10 9 6 10 10 3 10 -8
0 -11 11 -8 30 3 25 1 30 -13 26 -9 -3 -23 -2 -30 3 -11 7 -10 9 3 14 10 5 14
3 9 -4 -4 -7 -1 -10 7 -7 8 3 12 12 10 19 -2 8 -3 22 -3 32 0 9 -3 15 -8 12
-6 -3 -7 1 -4 9 4 10 1 16 -9 16 -10 0 -15 -7 -12 -20 2 -11 -1 -23 -7 -26 -6
-4 -8 -3 -4 4 3 5 0 13 -6 15 -10 4 -10 6 0 6 7 1 10 6 7 11 -3 6 0 13 8 16
16 6 12 44 -5 44 -5 0 -7 4 -4 9 10 15 -5 41 -23 41 -11 0 -12 3 -4 8 8 5 8
11 -1 24 -7 10 -16 15 -20 11 -4 -4 -4 1 0 11 5 13 0 24 -17 38 -13 11 -18 17
-11 13 11 -6 12 -3 2 15 -7 14 -17 19 -27 16 -12 -5 -13 -3 -5 6 8 10 3 21
-16 43 -15 17 -22 24 -17 15 9 -13 8 -13 -7 -1 -10 7 -16 17 -13 21 3 5 -17
33 -45 63 -88 96 -110 122 -109 132 0 6 3 4 6 -3 6 -16 23 -6 23 14 0 8 -4 12
-10 9 -6 -3 -7 1 -3 10 4 11 8 13 13 5 9 -14 20 -1 54 67 22 44 23 52 10 57
-12 4 -15 2 -10 -9 3 -8 1 -15 -5 -15 -6 0 -9 8 -7 17 2 10 12 18 23 18 14 0
20 7 21 25 1 14 3 30 5 35 12 38 -56 165 -88 165 -5 0 -17 14 -27 31 -32 54
-212 155 -287 162 -24 2 -55 1 -69 -3z m420 -270 c-13 -8 -12 -11 4 -23 16
-11 16 -15 5 -22 -8 -5 -11 -5 -7 0 4 4 0 13 -9 20 -17 13 -10 35 10 35 7 0 6
-4 -3 -10z m37 -62 c2 -17 0 -19 -7 -8 -5 8 -6 18 -4 22 8 12 10 10 11 -14z
m-17 -18 c7 -14 7 -20 0 -20 -5 0 -10 7 -10 15 0 9 -6 12 -17 9 -15 -5 -16 -4
-3 5 19 14 18 14 30 -9z m-50 -10 c0 -5 -5 -10 -11 -10 -5 0 -7 5 -4 10 3 6 8
10 11 10 2 0 4 -4 4 -10z m30 -20 c0 -5 -4 -10 -10 -10 -5 0 -10 5 -10 10 0 6
5 10 10 10 6 0 10 -4 10 -10z m-30 -14 c0 -2 -7 -7 -16 -10 -8 -3 -12 -2 -9 4
6 10 25 14 25 6z m67 -2 c-3 -3 -12 -4 -19 -1 -8 3 -5 6 6 6 11 1 17 -2 13 -5z
m-64 -49 c-9 -16 -10 -16 -16 -1 -5 12 -3 15 5 10 8 -5 9 -1 4 12 -5 14 -4 16
4 7 8 -7 9 -17 3 -28z m-40 -16 c-8 -8 -13 -7 -18 2 -5 8 -4 10 3 5 7 -4 12
-2 12 5 0 7 3 9 7 6 4 -4 2 -12 -4 -18z m77 -5 c0 -2 -7 -4 -15 -4 -8 0 -15 4
-15 10 0 5 7 7 15 4 8 -4 15 -8 15 -10z m-92 -29 c-3 -3 -9 2 -12 12 -6 14 -5
15 5 6 7 -7 10 -15 7 -18z m29 3 c-3 -8 -6 -5 -6 6 -1 11 2 17 5 13 3 -3 4
-12 1 -19z m28 2 c-3 -4 0 -11 5 -13 6 -3 5 -4 -1 -3 -7 1 -13 10 -15 19 -1 9
2 15 7 11 5 -3 7 -9 4 -14z m-80 -10 c-3 -5 -1 -10 6 -10 7 0 10 -3 6 -6 -9
-9 -28 6 -22 17 4 5 8 9 11 9 3 0 2 -4 -1 -10z m84 -25 c3 -3 -7 -4 -23 -1
-16 3 -31 8 -35 11 -3 3 7 4 23 1 16 -3 31 -8 35 -11z m-87 -9 c7 4 8 2 4 -5
-9 -13 -26 -5 -25 12 0 9 2 8 6 -1 2 -6 10 -9 15 -6z m43 -5 c3 -5 0 -13 -6
-17 -7 -4 -9 -3 -5 4 3 5 0 13 -6 15 -9 4 -10 6 -1 6 6 1 14 -3 18 -8z m-960
-232 c-9 -13 27 -8 38 6 5 6 7 4 5 -4 -4 -15 -35 -24 -50 -15 -8 5 -2 24 8 24
3 0 2 -5 -1 -11z m-21 -15 c3 -8 2 -12 -4 -9 -6 3 -10 10 -10 16 0 14 7 11 14
-7z m-21 -28 c-4 -5 3 -7 15 -4 12 4 25 1 29 -4 3 -7 1 -8 -5 -4 -7 4 -12 2
-12 -4 0 -22 -36 8 -37 32 -2 17 0 19 7 8 5 -8 6 -18 3 -24z m-26 2 c-3 -8 -6
-5 -6 6 -1 11 2 17 5 13 3 -3 4 -12 1 -19z m193 12 c0 -5 -4 -10 -10 -10 -5 0
-10 5 -10 10 0 6 5 10 10 10 6 0 10 -4 10 -10z m35 -8 c-3 -3 -11 0 -18 7 -9
10 -8 11 6 5 10 -3 15 -9 12 -12z m37 -14 c-7 -7 -12 -8 -12 -2 0 5 -5 2 -11
-6 -9 -13 -10 -13 -6 0 2 8 10 14 17 12 8 -2 10 3 6 15 -6 14 -5 16 5 6 10
-10 10 -16 1 -25z m-292 12 c0 -5 -2 -10 -4 -10 -3 0 -8 5 -11 10 -3 6 -1 10
4 10 6 0 11 -4 11 -10z m127 4 c-3 -3 -12 -4 -19 -1 -8 3 -5 6 6 6 11 1 17 -2
13 -5z m184 -27 c-10 -9 -11 -8 -5 6 3 10 9 15 12 12 3 -3 0 -11 -7 -18z
m-343 -7 c-7 -10 -14 -17 -17 -15 -4 4 18 35 25 35 2 0 -1 -9 -8 -20z m405 -5
c-7 -21 -12 -19 -10 4 0 11 5 18 9 15 4 -3 5 -11 1 -19z m-353 5 c0 -5 -4 -10
-10 -10 -5 0 -10 5 -10 10 0 6 5 10 10 10 6 0 10 -4 10 -10z m-20 -35 c0 -5
-5 -3 -10 5 -5 8 -10 20 -10 25 0 6 5 3 10 -5 5 -8 10 -19 10 -25z m415 14
c-8 -12 -35 -12 -35 1 0 5 7 6 17 3 12 -5 14 -3 8 7 -5 9 -4 11 4 6 6 -4 9
-12 6 -17z m-351 3 c3 -5 -1 -9 -9 -9 -8 0 -12 4 -9 9 3 4 7 8 9 8 2 0 6 -4 9
-8z m-31 -22 c3 -11 1 -18 -4 -14 -5 3 -9 12 -9 20 0 20 7 17 13 -6z m-63 0
c-8 -5 -22 -9 -30 -9 -10 0 -8 3 5 9 27 12 43 12 25 0z m487 -12 c-3 -8 -6 -5
-6 6 -1 11 2 17 5 13 3 -3 4 -12 1 -19z m37 -4 c3 -8 2 -12 -4 -9 -6 3 -10 10
-10 16 0 14 7 11 14 -7z m-580 -18 c-3 -9 -10 -16 -15 -16 -5 0 -4 9 3 20 14
22 21 20 12 -4z m2 -45 c-3 -5 0 -11 8 -14 7 -3 13 -16 12 -29 -1 -18 -6 -22
-25 -20 -14 2 -21 0 -17 -6 4 -6 2 -13 -3 -16 -5 -4 -8 2 -7 11 2 11 12 18 24
17 14 0 20 5 19 18 -1 10 -7 18 -14 18 -14 0 -17 12 -6 23 9 10 15 9 9 -2z
m51 -7 c-3 -3 -12 -4 -19 -1 -8 3 -5 6 6 6 11 1 17 -2 13 -5z m1353 -14 c0 -5
-2 -10 -4 -10 -3 0 -8 5 -11 10 -3 6 -1 10 4 10 6 0 11 -4 11 -10z m-1420 -15
c0 -2 -6 -5 -13 -8 -8 -3 -14 1 -14 8 0 7 6 11 14 8 7 -3 13 -6 13 -8z m1440
-19 c0 -3 -4 -8 -10 -11 -5 -3 -10 -1 -10 4 0 6 5 11 10 11 6 0 10 -2 10 -4z
m13 -21 c-3 -9 -8 -14 -10 -11 -3 3 -2 9 2 15 9 16 15 13 8 -4z m-1441 -27
c-7 -7 -12 -8 -12 -2 0 6 3 14 7 17 3 4 9 5 12 2 2 -3 -1 -11 -7 -17z m11 -26
c-10 -10 -20 -17 -22 -16 -6 5 20 34 30 34 5 0 1 -8 -8 -18z m1497 -126 c0 -3
-4 -8 -10 -11 -5 -3 -10 -1 -10 4 0 6 5 11 10 11 6 0 10 -2 10 -4z m-33 -38
c-3 -7 -5 -2 -5 12 0 14 2 19 5 13 2 -7 2 -19 0 -25z m31 -59 c3 -11 2 -12 -6
-1 -5 8 -12 13 -16 12 -4 -1 -12 1 -19 4 -6 2 -1 3 12 2 14 -2 27 -9 29 -17z
m-38 -13 c0 -8 -4 -17 -8 -20 -4 -2 -8 4 -8 15 0 10 4 19 8 19 4 0 8 -6 8 -14z
m7 -48 c-3 -8 -6 -5 -6 6 -1 11 2 17 5 13 3 -3 4 -12 1 -19z m1 -42 c-14 -10
-15 -15 -5 -26 10 -12 9 -12 -6 -1 -17 13 -17 15 0 31 10 10 20 15 23 13 3 -3
-3 -10 -12 -17z m-23 -46 c-3 -5 -1 -11 5 -15 6 -4 8 -11 4 -16 -8 -13 28 -7
39 6 5 6 7 4 4 -5 -4 -18 -51 -20 -53 -2 -1 6 -2 13 -4 15 -7 9 -6 36 1 31 5
-3 7 -9 4 -14z m-8 -57 c-4 -3 1 -11 10 -18 13 -9 13 -14 3 -20 -9 -5 -11 -4
-6 3 4 7 1 12 -8 12 -9 0 -16 4 -16 8 0 10 11 22 18 22 3 0 2 -3 -1 -7z m50
-9 c-3 -3 -12 -4 -19 -1 -8 3 -5 6 6 6 11 1 17 -2 13 -5z m2 -41 c0 -11 -3
-13 -6 -5 -2 6 -10 9 -15 6 -7 -4 -8 -2 -4 4 11 18 26 14 25 -5z m-49 -13 c0
-5 -7 -7 -15 -4 -8 4 -15 8 -15 10 0 2 7 4 15 4 8 0 15 -4 15 -10z m-29 -15
c5 4 6 0 4 -7 -4 -9 2 -14 15 -15 11 -1 18 2 16 6 -3 4 0 13 5 21 7 11 8 8 6
-10 -3 -18 -11 -25 -26 -26 -20 -1 -42 23 -40 43 0 4 3 2 6 -5 2 -6 9 -10 14
-7z m66 -17 c-3 -8 -6 -5 -6 6 -1 11 2 17 5 13 3 -3 4 -12 1 -19z m-86 -31
c-13 -13 -26 -3 -16 12 3 6 11 8 17 5 6 -4 6 -10 -1 -17z m59 -13 c0 -2 -7 -4
-15 -4 -8 0 -15 4 -15 10 0 5 7 7 15 4 8 -4 15 -8 15 -10z m-65 -44 c5 1 11
-4 13 -12 3 -11 2 -11 -6 0 -5 8 -13 12 -18 10 -5 -1 -10 8 -11 22 -2 24 -2
24 5 2 4 -13 11 -23 17 -22z m28 27 c4 3 7 1 7 -5 0 -17 -16 -15 -31 6 -12 15
-12 16 2 5 9 -7 19 -10 22 -6z m27 -27 c0 -5 -5 -10 -11 -10 -5 0 -7 5 -4 10
3 6 8 10 11 10 2 0 4 -4 4 -10z m-103 -21 c-4 -15 -2 -19 9 -15 8 3 14 1 14
-4 0 -11 -23 -14 -32 -4 -7 6 2 44 9 44 3 0 3 -9 0 -21z m-240 -13 c0 -8 -6
-12 -15 -9 -11 5 -11 7 0 14 7 5 13 9 14 9 0 0 1 -6 1 -14z m179 -26 c0 -16
-4 -30 -8 -30 -4 0 -6 10 -4 23 3 12 5 25 5 30 1 4 3 7 5 7 2 0 3 -13 2 -30z
m121 11 c0 -11 -5 -18 -9 -15 -4 3 -5 11 -1 19 7 21 12 19 10 -4z m-227 -1
c-12 -8 -12 -10 -1 -10 8 0 12 -3 8 -6 -9 -9 -28 6 -22 17 4 5 12 9 18 9 7 0
6 -4 -3 -10z m65 -10 c13 -6 15 -9 5 -9 -8 0 -22 4 -30 9 -18 12 -2 12 25 0z
m85 0 c0 -5 -7 -7 -15 -4 -8 4 -15 8 -15 10 0 2 7 4 15 4 8 0 15 -4 15 -10z
m54 -21 c-3 -5 -15 -7 -26 -3 -15 4 -18 3 -13 -6 5 -9 4 -11 -4 -6 -18 12 -2
28 21 20 15 -4 18 -3 13 6 -5 9 -4 11 4 6 6 -4 9 -12 5 -17z m-124 -13 c0 -2
-7 -7 -16 -10 -8 -3 -12 -2 -9 4 6 10 25 14 25 6z m-1968 -114 c-7 -2 -10 -8
-7 -12 3 -5 2 -11 -3 -14 -4 -2 -8 6 -8 19 0 16 4 21 15 17 10 -4 11 -7 3 -10z
m25 -58 c-4 -15 -5 -14 -6 4 -1 15 -5 21 -13 16 -7 -5 -8 -3 -3 5 10 18 28 -2
22 -25z m-27 -4 c0 -5 -2 -10 -4 -10 -3 0 -8 5 -11 10 -3 6 -1 10 4 10 6 0 11
-4 11 -10z m20 -30 c0 -5 -4 -10 -10 -10 -5 0 -10 5 -10 10 0 6 5 10 10 10 6
0 10 -4 10 -10z m10 -35 c0 -8 -4 -15 -10 -15 -5 0 -7 7 -4 15 4 8 8 15 10 15
2 0 4 -7 4 -15z m-30 -25 c0 -5 -4 -10 -10 -10 -5 0 -10 5 -10 10 0 6 5 10 10
10 6 0 10 -4 10 -10z m40 -20 c0 -5 -7 -7 -15 -4 -8 4 -15 8 -15 10 0 2 7 4
15 4 8 0 15 -4 15 -10z m1476 -16 c1 -9 0 -13 -4 -10 -3 4 -7 14 -8 22 -1 9 0
13 4 10 3 -4 7 -14 8 -22z m-1545 -7 c-10 -9 -11 -8 -5 6 3 10 9 15 12 12 3
-3 0 -11 -7 -18z m55 1 c5 -7 3 -8 -6 -3 -10 6 -12 4 -6 -11 5 -14 4 -16 -5
-7 -6 6 -8 16 -5 22 9 14 13 14 22 -1z m-28 -40 c-2 -6 -10 -13 -16 -14 -7 -1
-8 0 -2 3 5 2 8 9 4 14 -3 5 0 9 6 9 7 0 10 -5 8 -12z m19 -19 c-1 -11 -11
-25 -22 -30 -17 -9 -18 -8 -4 3 16 13 19 19 19 38 0 6 2 10 4 10 3 0 4 -9 3
-21z m-17 -69 c6 -11 8 -20 6 -20 -3 0 -10 9 -16 20 -6 11 -8 20 -6 20 3 0 10
-9 16 -20z m1593 -1 c5 -3 2 -9 -5 -12 -9 -3 -14 3 -15 15 -1 11 1 16 5 12 4
-5 11 -12 15 -15z m-1563 -53 c-7 -7 -15 -5 -22 3 -11 10 -10 11 5 5 14 -5 16
-2 11 12 -5 16 -4 16 5 4 6 -9 7 -18 1 -24z m1585 -15 c3 -5 0 -13 -6 -17 -7
-4 -9 -3 -5 4 3 5 0 13 -6 15 -9 4 -10 6 -1 6 6 1 14 -3 18 -8z m16 -24 c-10
-9 -11 -8 -5 6 3 10 9 15 12 12 3 -3 0 -11 -7 -18z m-1576 -17 c3 -5 1 -10 -4
-10 -6 0 -11 5 -11 10 0 6 2 10 4 10 3 0 8 -4 11 -10z m1563 -26 c-3 -14 -5
-12 -10 9 -3 19 -2 25 4 19 6 -6 8 -18 6 -28z m37 -26 c-1 -13 3 -27 9 -31 7
-6 6 -7 -3 -5 -15 4 -24 35 -15 50 8 13 11 9 9 -14z m-28 -20 c-3 -8 -6 -5 -6
6 -1 11 2 17 5 13 3 -3 4 -12 1 -19z m28 -36 c-3 -3 -11 0 -18 7 -9 10 -8 11
6 5 10 -3 15 -9 12 -12z m-15 -24 c-1 -16 -30 -56 -30 -41 0 7 5 15 11 18 6 4
8 13 5 21 -3 8 -1 14 4 14 6 0 10 -6 10 -12z m40 8 c0 -3 -4 -8 -10 -11 -5 -3
-10 -1 -10 4 0 6 5 11 10 11 6 0 10 -2 10 -4z m-6 -38 c-3 -5 -9 -6 -14 -3 -5
3 -12 -4 -15 -16 -4 -11 -9 -18 -12 -16 -9 9 16 44 31 44 8 0 13 -4 10 -9z
m-9 -58 c3 -6 -1 -7 -9 -4 -18 7 -21 14 -7 14 6 0 13 -4 16 -10z m-15 -24 c-1
-5 4 -13 12 -18 10 -8 10 -9 -2 -5 -8 2 -14 10 -12 17 2 7 -3 10 -12 7 -8 -3
-17 0 -20 8 -4 10 0 12 15 6 11 -4 20 -11 19 -15z m-10 -37 c0 -5 -4 -9 -8 -9
-5 0 -9 7 -9 15 0 8 4 12 9 9 4 -3 8 -9 8 -15z m-27 -28 c-2 -6 6 -11 17 -11
11 0 19 5 18 11 -2 6 4 14 12 16 12 4 12 3 2 -5 -8 -5 -13 -13 -13 -18 1 -5
-8 -9 -19 -9 -11 0 -20 4 -19 9 0 5 -5 13 -13 18 -10 8 -10 9 2 5 8 -2 14 -10
13 -16z m3 -68 c4 -27 -7 -35 -26 -21 -12 8 -12 9 3 4 26 -8 18 27 -8 36 -17
6 -17 7 4 5 16 -1 25 -9 27 -24z m21 -5 c-3 -8 -6 -5 -6 6 -1 11 2 17 5 13 3
-3 4 -12 1 -19z m16 -23 c-3 -9 -8 -14 -10 -11 -3 3 -2 9 2 15 9 16 15 13 8
-4z m-59 -21 c9 -24 2 -26 -12 -4 -7 11 -8 20 -3 20 5 0 12 -7 15 -16z m36 6
c0 -5 -5 -10 -11 -10 -5 0 -7 5 -4 10 3 6 8 10 11 10 2 0 4 -4 4 -10z m-37
-50 c-3 -3 -10 3 -17 12 -10 14 -15 15 -26 5 -12 -10 -12 -9 -1 6 13 17 15 17
31 0 10 -10 15 -20 13 -23z m-12 -22 c6 -12 6 -18 -1 -18 -5 0 -10 6 -10 13 0
7 -9 13 -20 14 -11 1 -18 -2 -16 -6 3 -4 -1 -8 -9 -8 -11 0 -12 4 -4 13 15 18
49 13 60 -8z m32 7 c-3 -9 -8 -14 -10 -11 -3 3 -2 9 2 15 9 16 15 13 8 -4z
m-53 -35 c0 -5 -4 -10 -10 -10 -5 0 -10 5 -10 10 0 6 5 10 10 10 6 0 10 -4 10
-10z m-27 -29 c-2 -6 6 -11 17 -11 11 0 19 5 18 12 -2 6 6 13 17 15 18 3 18 2
2 -5 -10 -4 -18 -12 -18 -17 1 -6 -9 -10 -21 -10 -13 0 -22 5 -20 13 3 17 -9
15 -23 -5 -9 -13 -14 -13 -20 -3 -5 8 -4 11 2 7 6 -4 14 0 17 9 7 17 32 13 29
-5z m-17 -30 c-4 -5 -1 -11 6 -13 6 -2 13 -15 15 -29 2 -18 1 -20 -6 -9 -5 8
-8 17 -5 21 2 4 -3 10 -12 13 -13 5 -12 26 2 26 3 0 3 -4 0 -9z m-24 -26 c1
-5 8 -16 17 -23 14 -11 13 -11 -7 -2 -12 6 -20 15 -17 20 3 5 -3 11 -12 14
-17 4 -17 5 0 3 10 -1 18 -6 19 -12z m-37 -16 c-4 -5 -12 -9 -18 -8 -9 0 -8 2
1 6 6 2 9 10 6 15 -4 7 -2 8 5 4 6 -4 9 -12 6 -17z m25 -19 c0 -5 -4 -10 -10
-10 -5 0 -10 5 -10 10 0 6 5 10 10 10 6 0 10 -4 10 -10z m-35 -12 c5 4 5 1 1
-6 -4 -7 -11 -10 -16 -7 -4 3 -10 -1 -13 -7 -3 -7 -4 -3 -4 9 1 15 5 19 13 13
6 -6 15 -6 19 -2z m67 -6 c-13 -4 -22 -11 -21 -17 2 -5 -5 -11 -14 -13 -9 -2
-17 1 -17 7 0 6 7 8 15 4 9 -3 15 -2 14 3 -3 19 2 24 24 23 l22 -1 -23 -6z
m-122 -37 c-7 -8 -16 -15 -21 -15 -5 0 -1 8 9 18 20 22 31 19 12 -3z m78 -13
c15 12 16 11 3 -4 -16 -22 -31 -14 -30 15 2 21 2 21 6 -1 4 -20 7 -21 21 -10z
m-52 -7 c-3 -9 -11 -13 -18 -9 -7 5 -9 2 -6 -8 4 -8 2 -21 -3 -29 -5 -9 -7 -4
-5 16 1 17 8 29 14 28 7 -2 12 5 12 14 0 9 3 14 6 10 4 -3 4 -13 0 -22z m-51
-33 c-3 -3 -11 0 -18 7 -9 10 -8 11 6 5 10 -3 15 -9 12 -12z m80 8 c3 -5 2
-10 -4 -10 -5 0 -13 5 -16 10 -3 6 -2 10 4 10 5 0 13 -4 16 -10z m-125 -20 c0
-5 -5 -10 -11 -10 -5 0 -7 5 -4 10 3 6 8 10 11 10 2 0 4 -4 4 -10z m120 -7 c0
-3 -7 -2 -16 1 -12 4 -15 2 -10 -9 3 -8 1 -15 -4 -15 -11 0 -14 23 -4 33 6 6
34 -2 34 -10z m-145 -24 c-4 -5 3 -9 14 -9 12 0 20 6 19 13 -2 7 7 12 20 12
12 0 22 -4 21 -10 0 -5 10 -13 23 -17 22 -7 22 -7 -2 -5 -14 1 -24 8 -22 15 1
6 -7 12 -18 12 -11 0 -19 -6 -17 -12 1 -8 -8 -13 -22 -13 -15 0 -25 6 -27 18
-1 9 2 15 7 11 5 -3 7 -10 4 -15z m-12 -26 c3 -5 -6 -9 -20 -10 -19 -1 -22 1
-12 8 17 11 26 11 32 2z m85 -1 c8 -6 2 -9 -18 -9 -20 0 -26 3 -18 9 7 4 15 8
18 8 3 0 11 -4 18 -8z m-153 -22 c3 -5 1 -10 -4 -10 -6 0 -11 5 -11 10 0 6 2
10 4 10 3 0 8 -4 11 -10z m23 -25 c-1 -14 -6 -25 -11 -25 -5 0 -6 7 -3 16 3 9
6 20 6 25 0 5 2 9 5 9 3 0 4 -11 3 -25z m42 15 c0 -5 -4 -10 -10 -10 -5 0 -10
5 -10 10 0 6 5 10 10 10 6 0 10 -4 10 -10z m37 -9 c0 -11 -5 -18 -9 -15 -4 3
-5 11 -1 19 7 21 12 19 10 -4z m43 15 c0 -3 -4 -8 -10 -11 -5 -3 -10 -1 -10 4
0 6 5 11 10 11 6 0 10 -2 10 -4z m-202 -41 c-3 -3 -9 2 -12 12 -6 14 -5 15 5
6 7 -7 10 -15 7 -18z m45 18 c-7 -2 -19 -2 -25 0 -7 3 -2 5 12 5 14 0 19 -2
13 -5z m-909 -11 c2 -4 -2 -16 -10 -27 -8 -10 -14 -14 -14 -8 0 7 5 15 11 19
8 4 7 9 -2 15 -10 6 -10 9 -2 9 6 0 14 -3 17 -8z m1001 -2 c3 -5 1 -10 -4 -10
-6 0 -11 5 -11 10 0 6 2 10 4 10 3 0 8 -4 11 -10z m-955 -20 c0 -5 -4 -10 -10
-10 -5 0 -10 5 -10 10 0 6 5 10 10 10 6 0 10 -4 10 -10z m55 0 c13 -6 15 -9 5
-9 -8 0 -22 4 -30 9 -18 12 -2 12 25 0z m702 -13 c-4 -13 -44 -20 -52 -8 -3 5
0 13 6 17 7 4 9 3 5 -4 -4 -7 2 -10 14 -9 13 1 19 6 15 15 -3 7 0 10 6 7 5 -4
8 -12 6 -18z m95 15 c-13 -4 -24 -11 -25 -17 -1 -5 -10 -10 -19 -9 -11 0 -18
-7 -18 -19 0 -17 2 -18 18 -6 15 13 16 12 3 -4 -17 -21 -35 -9 -29 19 2 13 11
18 26 16 12 -2 22 0 21 5 -3 18 2 23 24 22 l22 -1 -23 -6z m78 -2 c0 -5 -2
-10 -4 -10 -3 0 -8 5 -11 10 -3 6 -1 10 4 10 6 0 11 -4 11 -10z m-957 -41 c-4
-4 -15 -4 -23 2 -12 9 -12 10 3 5 15 -5 17 -2 12 17 -5 20 -5 20 6 4 6 -11 7
-23 2 -28z m910 20 c-8 -8 -13 -7 -18 2 -5 8 -4 10 3 5 7 -4 12 -2 12 5 0 7 3
9 7 6 4 -4 2 -12 -4 -18z m-860 4 c-7 -2 -13 -12 -13 -20 0 -9 -3 -14 -6 -10
-10 10 4 37 18 36 10 0 10 -2 1 -6z m70 -8 c4 -8 3 -16 -1 -19 -4 -3 -9 4 -9
15 -2 23 3 25 10 4z m27 5 c0 -5 -2 -10 -4 -10 -3 0 -8 5 -11 10 -3 6 -1 10 4
10 6 0 11 -4 11 -10z m599 -27 c2 -1 -6 -1 -17 0 -11 0 -20 4 -20 7 1 17 -4
19 -23 9 -16 -8 -24 -8 -33 2 -8 9 -8 10 1 5 7 -4 21 -3 30 3 13 7 23 5 38 -7
11 -9 22 -18 24 -19z m-559 12 c0 -8 -4 -15 -10 -15 -5 0 -7 7 -4 15 4 8 8 15
10 15 2 0 4 -7 4 -15z m37 -7 c-2 -7 3 -19 12 -26 14 -11 13 -12 -6 -2 -14 6
-20 16 -17 25 7 18 17 20 11 3z m399 -13 c-3 -9 -11 -13 -17 -9 -9 5 -10 -1
-5 -22 5 -24 4 -26 -5 -11 -12 21 -4 51 11 42 5 -3 10 2 10 11 0 10 3 15 6 11
4 -3 4 -13 0 -22z m-338 -10 c-3 -3 -9 2 -12 12 -6 14 -5 15 5 6 7 -7 10 -15
7 -18z m39 19 c-3 -3 -12 -4 -19 -1 -8 3 -5 6 6 6 11 1 17 -2 13 -5z m225 -1
c-6 -2 -9 -10 -6 -15 4 -7 2 -8 -5 -4 -13 9 -5 26 12 25 9 0 8 -2 -1 -6z
m-564 -12 c1 0 -5 -12 -14 -26 -9 -14 -20 -22 -25 -19 -5 3 -9 -4 -9 -15 0
-12 6 -20 13 -18 6 1 12 -4 12 -12 0 -8 -6 -15 -13 -17 -7 -1 -8 0 -2 3 14 7
12 23 -2 21 -8 -2 -13 7 -13 22 0 14 5 24 11 23 5 -1 15 7 22 17 10 16 8 18
-8 17 -11 -1 -22 -7 -24 -14 -6 -16 -26 -17 -26 -2 0 5 4 8 9 5 5 -3 11 0 14
8 4 10 38 15 55 7z m31 -17 c-6 -8 -15 -12 -18 -8 -3 4 0 9 7 11 6 3 9 10 6
15 -4 7 -2 8 5 4 9 -6 9 -11 0 -22z m251 6 c6 -11 8 -20 6 -20 -3 0 -10 9 -16
20 -6 11 -8 20 -6 20 3 0 10 -9 16 -20z m109 10 c-6 -5 -19 -6 -27 -2 -11 4
-13 1 -7 -8 5 -9 4 -11 -4 -6 -17 11 -5 24 25 24 17 0 22 -3 13 -8z m22 -21
c-5 -13 -10 -19 -10 -12 -1 15 10 45 15 40 3 -2 0 -15 -5 -28z m109 27 c0 -3
-4 -8 -10 -11 -5 -3 -10 -1 -10 4 0 6 5 11 10 11 6 0 10 -2 10 -4z m197 -26
c2 -18 1 -21 -6 -10 -5 8 -8 17 -5 21 2 4 -5 7 -16 6 -15 -1 -19 -7 -15 -25 2
-14 1 -22 -2 -18 -9 8 -13 38 -8 47 3 3 14 6 26 5 15 -1 23 -9 26 -26z m-223
5 c3 -8 1 -15 -4 -15 -6 0 -10 7 -10 15 0 8 2 15 4 15 2 0 6 -7 10 -15z m243
-7 c-3 -8 -6 -5 -6 6 -1 11 2 17 5 13 3 -3 4 -12 1 -19z m37 6 c3 -8 2 -12 -4
-9 -6 3 -10 10 -10 16 0 14 7 11 14 -7z m-439 -4 c3 -5 2 -10 -4 -10 -5 0 -13
5 -16 10 -3 6 -2 10 4 10 5 0 13 -4 16 -10z m104 -7 c-12 -15 -12 -16 4 -10 9
3 17 2 17 -3 0 -11 -23 -14 -33 -4 -8 8 3 34 15 34 6 0 4 -8 -3 -17z m99 1
c-2 -8 -7 -14 -12 -14 -5 1 -13 -4 -18 -12 -8 -10 -9 -10 -5 2 2 8 10 14 17
12 8 -2 10 3 7 13 -4 8 -2 15 4 15 6 0 9 -7 7 -16z m112 6 c0 -5 -5 -10 -11
-10 -5 0 -7 5 -4 10 3 6 8 10 11 10 2 0 4 -4 4 -10z m-734 -56 c-3 -8 -10 -12
-16 -9 -5 3 -10 2 -10 -4 0 -5 5 -12 10 -14 6 -3 5 -4 -2 -3 -7 2 -13 9 -13
17 0 8 6 13 13 12 6 -2 12 7 13 20 0 12 3 16 6 9 3 -7 2 -20 -1 -28z m88 14
c-3 -4 -9 -8 -15 -8 -5 0 -9 4 -9 8 0 5 7 9 15 9 8 0 12 -4 9 -9z m-130 -43
c3 -8 -3 -19 -13 -25 -14 -7 -20 -6 -24 4 -4 10 0 12 14 9 15 -4 18 -2 13 11
-3 9 -4 16 -1 16 3 0 7 -7 11 -15z m66 -15 c0 -5 -4 -10 -10 -10 -5 0 -10 5
-10 10 0 6 5 10 10 10 6 0 10 -4 10 -10z m-145 -20 c-3 -5 -12 -10 -18 -10 -7
0 -6 4 3 10 19 12 23 12 15 0z m35 6 c0 -2 -8 -10 -17 -17 -16 -13 -17 -12 -4
4 13 16 21 21 21 13z m80 0 c0 -2 -7 -6 -15 -10 -8 -3 -15 -1 -15 4 0 6 7 10
15 10 8 0 15 -2 15 -4z m-236 -25 c-5 -5 -18 -5 -29 0 -18 9 -18 9 3 5 12 -2
22 1 22 7 0 6 3 7 7 4 4 -4 2 -11 -3 -16z m58 10 c11 6 22 9 24 6 2 -2 -7 -9
-20 -15 -20 -9 -27 -8 -37 6 -11 14 -11 15 1 5 9 -9 19 -9 32 -2z m140 -11 c1
-3 -3 -14 -10 -25 -6 -11 -12 -15 -12 -10 0 6 6 17 13 24 10 10 8 12 -8 9 -11
-1 -28 -14 -37 -28 -16 -23 -17 -23 -15 -3 0 12 4 20 8 17 4 -2 9 2 12 10 5
12 45 17 49 6z m46 -15 c-3 -3 -9 2 -12 12 -6 14 -5 15 5 6 7 -7 10 -15 7 -18z
m-133 -14 c-6 -5 -25 10 -25 20 0 5 6 4 14 -3 8 -7 12 -15 11 -17z m-80 9 c3
-6 -1 -7 -9 -4 -18 7 -21 14 -7 14 6 0 13 -4 16 -10z m45 -24 c-7 -7 -14 -6
-22 3 -11 10 -9 11 7 5 18 -7 19 -6 5 12 -14 18 -14 18 3 5 12 -10 15 -17 7
-25z"/>
</g>
</svg>
